<svg width="153" height="48" viewBox="0 0 153 48" fill="none" xmlns="http://www.w3.org/2000/svg">
<path d="M79.7812 22V7.9082H76.8711L72.5547 18.543H72.4766L68.1602 7.9082H65.2402V22H67.5156V12H67.584L71.6562 21.8828H73.375L77.4473 12H77.5156V22H79.7812ZM85.5527 20.3301C84.498 20.3301 83.7949 19.793 83.7949 18.9434C83.7949 18.123 84.4688 17.5957 85.6406 17.5176L88.0332 17.3711V18.1621C88.0332 19.4121 86.9297 20.3301 85.5527 20.3301ZM84.8203 22.166C86.1484 22.166 87.4473 21.4727 88.043 20.3496H88.0918V22H90.4355V14.8711C90.4355 12.791 88.7656 11.4336 86.1973 11.4336C83.5605 11.4336 81.9102 12.8203 81.8027 14.7539H84.0586C84.2148 13.8945 84.9473 13.3379 86.0996 13.3379C87.3008 13.3379 88.0332 13.9629 88.0332 15.0469V15.7891L85.2988 15.9453C82.7793 16.1016 81.3633 17.2051 81.3633 19.041C81.3633 20.9062 82.8184 22.166 84.8203 22.166ZM92.3984 22H94.8301V15.9746C94.8301 14.5195 95.6602 13.6309 97.0371 13.6309C97.4473 13.6309 97.8184 13.6895 98.0234 13.7676V11.5703C97.8477 11.5312 97.5742 11.4727 97.2617 11.4727C96.041 11.4727 95.1328 12.1953 94.7812 13.4551H94.7324V11.6484H92.3984V22ZM101.803 15.9648H101.773V7.9082H99.3418V22H101.773V18.4062L102.594 17.5762L105.865 22H108.678L104.361 16.1016L108.502 11.6484H105.699L101.803 15.9648ZM113.619 13.3184C115.016 13.3184 115.953 14.3438 116.002 15.8086H111.168C111.266 14.3633 112.252 13.3184 113.619 13.3184ZM116.012 18.9043C115.748 19.7637 114.889 20.3301 113.756 20.3301C112.164 20.3301 111.148 19.2168 111.148 17.5566V17.4102H118.385V16.6191C118.385 13.4746 116.549 11.4336 113.609 11.4336C110.621 11.4336 108.727 13.5918 108.727 16.8633C108.727 20.1641 110.602 22.2051 113.707 22.2051C116.158 22.2051 117.975 20.8574 118.287 18.9043H116.012ZM120.631 9.22656V11.6484H119.146V13.5234H120.631V19.2461C120.631 21.2578 121.51 22.0488 123.746 22.0488C124.264 22.0488 124.742 22.0098 125.006 21.9512V20.0957C124.85 20.125 124.537 20.1445 124.312 20.1445C123.453 20.1445 123.062 19.7539 123.062 18.9043V13.5234H125.016V11.6484H123.062V9.22656H120.631ZM126.734 22H129.166V11.6484H126.734V22ZM127.945 10.291C128.707 10.291 129.303 9.70508 129.303 8.97266C129.303 8.23047 128.707 7.64453 127.945 7.64453C127.193 7.64453 126.598 8.23047 126.598 8.97266C126.598 9.70508 127.193 10.291 127.945 10.291ZM131.207 22H133.639V16.0039C133.639 14.5195 134.527 13.5137 135.924 13.5137C137.311 13.5137 137.994 14.334 137.994 15.7988V22H140.426V15.3105C140.426 12.918 139.127 11.4531 136.842 11.4531C135.25 11.4531 134.146 12.1953 133.59 13.4258H133.541V11.6484H131.207V22ZM146.949 20.0762C145.416 20.0762 144.439 18.8457 144.439 16.7949C144.439 14.7637 145.416 13.4746 146.949 13.4746C148.502 13.4746 149.508 14.7832 149.508 16.7949C149.508 18.8164 148.502 20.0762 146.949 20.0762ZM146.939 25.9062C149.957 25.9062 151.939 24.3047 151.939 21.834V11.6484H149.557V13.4258H149.518C148.922 12.2344 147.73 11.4727 146.256 11.4727C143.609 11.4727 141.949 13.5137 141.949 16.7852C141.949 20.0078 143.648 22.0098 146.207 22.0098C147.691 22.0098 148.912 21.2676 149.449 20.1543H149.508V21.9023C149.508 23.2207 148.6 24.1094 147.018 24.1094C145.865 24.1094 144.977 23.5723 144.713 22.7812H142.301C142.545 24.5977 144.381 25.9062 146.939 25.9062ZM65.2402 26.9082V41H67.7598V36.3418H70.6113C73.4629 36.3418 75.4648 34.4375 75.4648 31.625C75.4648 28.8125 73.5215 26.9082 70.7188 26.9082H65.2402ZM67.7598 28.9688H70.0547C71.8613 28.9688 72.9062 29.9355 72.9062 31.625C72.9062 33.334 71.8516 34.3105 70.0449 34.3105H67.7598V28.9688ZM80.084 39.3301C79.0293 39.3301 78.3262 38.793 78.3262 37.9434C78.3262 37.123 79 36.5957 80.1719 36.5176L82.5645 36.3711V37.1621C82.5645 38.4121 81.4609 39.3301 80.084 39.3301ZM79.3516 41.166C80.6797 41.166 81.9785 40.4727 82.5742 39.3496H82.623V41H84.9668V33.8711C84.9668 31.791 83.2969 30.4336 80.7285 30.4336C78.0918 30.4336 76.4414 31.8203 76.334 33.7539H78.5898C78.7461 32.8945 79.4785 32.3379 80.6309 32.3379C81.832 32.3379 82.5645 32.9629 82.5645 34.0469V34.7891L79.8301 34.9453C77.3105 35.1016 75.8945 36.2051 75.8945 38.041C75.8945 39.9062 77.3496 41.166 79.3516 41.166ZM86.9297 41H89.3613V34.9746C89.3613 33.5195 90.1914 32.6309 91.5684 32.6309C91.9785 32.6309 92.3496 32.6895 92.5547 32.7676V30.5703C92.3789 30.5312 92.1055 30.4727 91.793 30.4727C90.5723 30.4727 89.6641 31.1953 89.3125 32.4551H89.2637V30.6484H86.9297V41ZM94.4785 28.2266V30.6484H92.9941V32.5234H94.4785V38.2461C94.4785 40.2578 95.3574 41.0488 97.5938 41.0488C98.1113 41.0488 98.5898 41.0098 98.8535 40.9512V39.0957C98.6973 39.125 98.3848 39.1445 98.1602 39.1445C97.3008 39.1445 96.9102 38.7539 96.9102 37.9043V32.5234H98.8633V30.6484H96.9102V28.2266H94.4785ZM100.523 41H102.955V35.0039C102.955 33.5195 103.844 32.5137 105.24 32.5137C106.627 32.5137 107.311 33.334 107.311 34.7988V41H109.742V34.3105C109.742 31.918 108.443 30.4531 106.158 30.4531C104.566 30.4531 103.463 31.1953 102.906 32.4258H102.857V30.6484H100.523V41ZM116.158 32.3184C117.555 32.3184 118.492 33.3438 118.541 34.8086H113.707C113.805 33.3633 114.791 32.3184 116.158 32.3184ZM118.551 37.9043C118.287 38.7637 117.428 39.3301 116.295 39.3301C114.703 39.3301 113.688 38.2168 113.688 36.5566V36.4102H120.924V35.6191C120.924 32.4746 119.088 30.4336 116.148 30.4336C113.16 30.4336 111.266 32.5918 111.266 35.8633C111.266 39.1641 113.141 41.2051 116.246 41.2051C118.697 41.2051 120.514 39.8574 120.826 37.9043H118.551ZM122.496 41H124.928V34.9746C124.928 33.5195 125.758 32.6309 127.135 32.6309C127.545 32.6309 127.916 32.6895 128.121 32.7676V30.5703C127.945 30.5312 127.672 30.4727 127.359 30.4727C126.139 30.4727 125.23 31.1953 124.879 32.4551H124.83V30.6484H122.496V41Z" fill="white"/>
<g clip-path="url(#clip0)">
<path d="M45.3476 0.000976562H2.64919C1.18708 0.000976562 0 1.1857 0 2.65021V45.3494C0 46.8139 1.18708 48.0002 2.64919 48.0002H25.6368V29.4121H19.3821V22.167H25.6368V16.8243C25.6368 10.6256 29.4217 7.24844 34.9524 7.24844C37.604 7.24844 39.8778 7.44681 40.5409 7.53296V14.0122L36.7046 14.0138C33.6974 14.0138 33.1173 15.4435 33.1173 17.5403V22.1646H40.2919L39.3538 29.4089H33.1165V47.9978H45.3469C46.8105 47.9978 47.9984 46.8099 47.9984 45.3494V2.64863C47.9976 1.1857 46.8113 0.000976562 45.3476 0.000976562Z" fill="white"/>
</g>
<defs>
<clipPath id="clip0">
<rect width="48" height="48" fill="white"/>
</clipPath>
</defs>
</svg>
