<svg width="126" height="48" viewBox="0 0 126 48" fill="none" xmlns="http://www.w3.org/2000/svg">
<path d="M68.1973 22V10.0371H72.4062V7.9082H61.4688V10.0371H65.6875V22H68.1973ZM73.4805 22H75.9121V11.6484H73.4805V22ZM74.6914 10.291C75.4531 10.291 76.0488 9.70508 76.0488 8.97266C76.0488 8.23047 75.4531 7.64453 74.6914 7.64453C73.9395 7.64453 73.3438 8.23047 73.3438 8.97266C73.3438 9.70508 73.9395 10.291 74.6914 10.291ZM80.4824 15.9648H80.4531V7.9082H78.0215V22H80.4531V18.4062L81.2734 17.5762L84.5449 22H87.3574L83.041 16.1016L87.1816 11.6484H84.3789L80.4824 15.9648ZM94.0566 22V10.0371H98.2656V7.9082H87.3281V10.0371H91.5469V22H94.0566ZM101.908 22.2051C104.945 22.2051 106.918 20.1836 106.918 16.8242C106.918 13.4746 104.926 11.4336 101.908 11.4336C98.8906 11.4336 96.8984 13.4844 96.8984 16.8242C96.8984 20.1836 98.8711 22.2051 101.908 22.2051ZM101.908 20.2812C100.365 20.2812 99.3691 19.0312 99.3691 16.8242C99.3691 14.627 100.375 13.3672 101.908 13.3672C103.451 13.3672 104.447 14.627 104.447 16.8242C104.447 19.0312 103.451 20.2812 101.908 20.2812ZM111.01 15.9648H110.98V7.9082H108.549V22H110.98V18.4062L111.801 17.5762L115.072 22H117.885L113.568 16.1016L117.709 11.6484H114.906L111.01 15.9648ZM62.2402 26.9082V41H64.7598V36.3418H67.6113C70.4629 36.3418 72.4648 34.4375 72.4648 31.625C72.4648 28.8125 70.5215 26.9082 67.7188 26.9082H62.2402ZM64.7598 28.9688H67.0547C68.8613 28.9688 69.9062 29.9355 69.9062 31.625C69.9062 33.334 68.8516 34.3105 67.0449 34.3105H64.7598V28.9688ZM77.084 39.3301C76.0293 39.3301 75.3262 38.793 75.3262 37.9434C75.3262 37.123 76 36.5957 77.1719 36.5176L79.5645 36.3711V37.1621C79.5645 38.4121 78.4609 39.3301 77.084 39.3301ZM76.3516 41.166C77.6797 41.166 78.9785 40.4727 79.5742 39.3496H79.623V41H81.9668V33.8711C81.9668 31.791 80.2969 30.4336 77.7285 30.4336C75.0918 30.4336 73.4414 31.8203 73.334 33.7539H75.5898C75.7461 32.8945 76.4785 32.3379 77.6309 32.3379C78.832 32.3379 79.5645 32.9629 79.5645 34.0469V34.7891L76.8301 34.9453C74.3105 35.1016 72.8945 36.2051 72.8945 38.041C72.8945 39.9062 74.3496 41.166 76.3516 41.166ZM83.9297 41H86.3613V34.9746C86.3613 33.5195 87.1914 32.6309 88.5684 32.6309C88.9785 32.6309 89.3496 32.6895 89.5547 32.7676V30.5703C89.3789 30.5312 89.1055 30.4727 88.793 30.4727C87.5723 30.4727 86.6641 31.1953 86.3125 32.4551H86.2637V30.6484H83.9297V41ZM91.4785 28.2266V30.6484H89.9941V32.5234H91.4785V38.2461C91.4785 40.2578 92.3574 41.0488 94.5938 41.0488C95.1113 41.0488 95.5898 41.0098 95.8535 40.9512V39.0957C95.6973 39.125 95.3848 39.1445 95.1602 39.1445C94.3008 39.1445 93.9102 38.7539 93.9102 37.9043V32.5234H95.8633V30.6484H93.9102V28.2266H91.4785ZM97.5234 41H99.9551V35.0039C99.9551 33.5195 100.844 32.5137 102.24 32.5137C103.627 32.5137 104.311 33.334 104.311 34.7988V41H106.742V34.3105C106.742 31.918 105.443 30.4531 103.158 30.4531C101.566 30.4531 100.463 31.1953 99.9062 32.4258H99.8574V30.6484H97.5234V41ZM113.158 32.3184C114.555 32.3184 115.492 33.3438 115.541 34.8086H110.707C110.805 33.3633 111.791 32.3184 113.158 32.3184ZM115.551 37.9043C115.287 38.7637 114.428 39.3301 113.295 39.3301C111.703 39.3301 110.688 38.2168 110.688 36.5566V36.4102H117.924V35.6191C117.924 32.4746 116.088 30.4336 113.148 30.4336C110.16 30.4336 108.266 32.5918 108.266 35.8633C108.266 39.1641 110.141 41.2051 113.246 41.2051C115.697 41.2051 117.514 39.8574 117.826 37.9043H115.551ZM119.496 41H121.928V34.9746C121.928 33.5195 122.758 32.6309 124.135 32.6309C124.545 32.6309 124.916 32.6895 125.121 32.7676V30.5703C124.945 30.5312 124.672 30.4727 124.359 30.4727C123.139 30.4727 122.23 31.1953 121.879 32.4551H121.83V30.6484H119.496V41Z" fill="white"/>
<path d="M45.0294 12.0366C42.2901 12.0366 39.7626 11.1291 37.7329 9.59818C35.4051 7.84318 33.7326 5.26881 33.1419 2.30162C32.9957 1.5685 32.9169 0.811934 32.9094 0.0366211H25.0841V21.4191L25.0747 33.1313C25.0747 36.2626 23.0357 38.9176 20.2091 39.8513C19.3888 40.1222 18.5029 40.2507 17.5804 40.2001C16.4029 40.1354 15.2994 39.7801 14.3404 39.2063C12.2994 37.9857 10.9157 35.7713 10.8782 33.2382C10.8191 29.2791 14.0197 26.0513 17.976 26.0513C18.7569 26.0513 19.5069 26.1788 20.2091 26.4104V20.566V18.4651C19.4685 18.3554 18.7147 18.2982 17.9526 18.2982C13.6222 18.2982 9.57225 20.0982 6.67725 23.341C4.48912 25.7916 3.17662 28.9182 2.97412 32.1966C2.70881 36.5035 4.28475 40.5976 7.341 43.6182C7.79006 44.0616 8.26162 44.4732 8.75475 44.8529C11.3751 46.8694 14.5785 47.9626 17.9526 47.9626C18.7147 47.9626 19.4685 47.9063 20.2091 47.7966C23.361 47.3297 26.2691 45.8869 28.5641 43.6182C31.3841 40.831 32.9423 37.1307 32.9591 33.1922L32.9188 15.7022C34.2641 16.7401 35.7351 17.5988 37.3138 18.2654C39.7691 19.3013 42.3726 19.8263 45.0519 19.8254V14.1432V12.0347C45.0538 12.0366 45.0313 12.0366 45.0294 12.0366V12.0366Z" fill="white"/>
</svg>
