<svg width="25" height="21" viewBox="0 0 25 21" fill="none" xmlns="http://www.w3.org/2000/svg">
<path d="M22.8027 0.978516H2.19722C1.85899 0.978516 1.54234 1.06167 1.25586 1.19873L12.4511 12.394L14.9604 9.9825C14.9604 9.9825 14.9606 9.98229 14.9606 9.98219C14.9607 9.98209 14.9609 9.982 14.9609 9.982L23.7444 1.19893C23.4579 1.06177 23.141 0.978516 22.8027 0.978516Z" fill="#FE0089"/>
<path d="M24.78 2.23438L16.5142 10.4997L24.7797 18.7652C24.9167 18.4787 24.9999 18.1621 24.9999 17.8238V3.17538C24.9999 2.83735 24.9169 2.52075 24.78 2.23438Z" fill="#FE0089"/>
<path d="M0.220215 2.23438C0.0831543 2.52084 0 2.8375 0 3.17573V17.8242C0 18.1622 0.0830566 18.4789 0.22002 18.7653L8.48579 10.5L0.220215 2.23438Z" fill="#FE0089"/>
<path d="M15.4784 11.5357L12.9689 13.9475C12.8258 14.0906 12.6384 14.1621 12.451 14.1621C12.2637 14.1621 12.0762 14.0906 11.9332 13.9475L9.52129 11.5356L1.25537 19.801C1.5419 19.9382 1.85874 20.0214 2.19707 20.0214H22.8026C23.1408 20.0214 23.4574 19.9383 23.7439 19.8012L15.4784 11.5357Z" fill="#FE0089"/>
</svg>
