<svg width="32" height="32" viewBox="0 0 32 32" fill="none" xmlns="http://www.w3.org/2000/svg">
<path fill-rule="evenodd" clip-rule="evenodd" d="M16 32C24.8366 32 32 24.8366 32 16C32 7.16344 24.8366 0 16 0C7.16344 0 0 7.16344 0 16C0 24.8366 7.16344 32 16 32ZM19.4286 7V8.125C19.4286 9.98636 20.9662 11.5 22.8571 11.5H24V13.75H22.8571C21.5698 13.75 20.385 13.3237 19.4286 12.6143V19.375C19.4286 22.4767 16.8652 25 13.7143 25C10.5633 25 8 22.4767 8 19.375C8 16.2733 10.5633 13.75 13.7143 13.75H14.8571V16H13.7143C11.8234 16 10.2857 17.5136 10.2857 19.375C10.2857 21.2364 11.8234 22.75 13.7143 22.75C15.6052 22.75 17.1429 21.2364 17.1429 19.375V7H19.4286Z" fill="#FE0089"/>
</svg>
