<?xml version="1.0" standalone="no"?>
<!DOCTYPE svg PUBLIC "-//W3C//DTD SVG 20010904//EN"
 "http://www.w3.org/TR/2001/REC-SVG-20010904/DTD/svg10.dtd">
<svg version="1.0" xmlns="http://www.w3.org/2000/svg"
 width="244.000000pt" height="244.000000pt" viewBox="0 0 244.000000 244.000000"
 preserveAspectRatio="xMidYMid meet">
<metadata>
Created by potrace 1.11, written by Peter Selinger 2001-2013
</metadata>
<g transform="translate(0.000000,244.000000) scale(0.100000,-0.100000)"
fill="#000000" stroke="none">
<path d="M1820 2418 c-14 -11 -24 -27 -22 -34 3 -15 -14 -19 -20 -5 -1 5 -33
-3 -70 -19 -45 -19 -68 -25 -71 -17 -2 8 -13 5 -32 -8 -56 -40 -80 -55 -90
-55 -5 0 -4 5 3 12 7 7 12 16 12 22 0 6 -5 5 -12 -2 -14 -14 -32 -16 -23 -2 3
6 -1 7 -9 4 -21 -8 -20 5 2 23 11 10 8 10 -10 -1 -16 -9 -28 -14 -28 -10 0 14
-87 -47 -128 -88 -9 -10 -19 -18 -23 -18 -11 0 -3 44 9 48 7 2 12 8 12 13 0
13 -50 -14 -90 -48 l-32 -27 7 34 c8 38 3 38 -67 -6 -24 -15 -50 -28 -59 -29
-9 -1 -27 -11 -39 -23 -18 -17 -26 -19 -32 -10 -6 10 -15 5 -33 -17 -14 -16
-25 -24 -25 -16 0 10 -3 11 -13 2 -8 -6 -16 -8 -20 -5 -3 3 -14 -7 -24 -23
-10 -15 -23 -34 -30 -41 -7 -7 -13 -27 -13 -43 0 -36 -56 -142 -115 -219 -23
-30 -55 -80 -71 -110 -15 -30 -37 -67 -47 -83 -10 -15 -33 -61 -51 -102 -18
-41 -35 -73 -38 -70 -2 3 -22 -29 -43 -70 -21 -40 -41 -72 -44 -70 -9 5 -12
-169 -4 -181 17 -23 46 -32 70 -21 31 14 29 27 -5 27 -20 0 -33 7 -42 25 -18
33 -10 38 30 19 24 -13 70 -18 174 -22 227 -7 227 -7 280 23 27 15 45 21 41
13 -5 -7 3 -4 16 8 13 12 31 25 39 29 13 8 13 7 0 -11 -8 -10 -18 -21 -21 -24
-20 -18 -152 -202 -175 -244 -15 -28 -38 -60 -51 -71 -13 -11 -23 -24 -23 -29
0 -4 -12 -17 -26 -28 -17 -14 -22 -24 -15 -31 7 -7 0 -29 -21 -71 -55 -106
-58 -114 -60 -140 -2 -17 -7 -25 -15 -22 -7 3 -13 4 -13 3 0 -1 -11 -32 -24
-70 -14 -37 -21 -67 -15 -67 14 0 11 -14 -9 -36 -21 -22 -72 -107 -72 -119 0
-5 7 0 15 11 15 18 16 17 9 -15 -4 -22 -3 -31 4 -27 9 5 80 122 120 196 20 37
36 50 29 23 -3 -13 1 -27 9 -34 16 -13 19 -33 4 -24 -6 4 -7 -1 -3 -11 5 -13
13 -3 35 40 15 31 31 56 34 56 3 0 2 -4 -1 -10 -3 -5 -4 -10 -1 -10 3 0 15 18
26 40 11 22 25 40 30 40 5 0 12 9 15 20 4 11 65 78 137 149 88 87 128 133 123
141 -5 8 -4 11 3 6 6 -3 13 3 17 14 3 11 11 21 16 21 34 5 39 9 124 109 73 87
96 124 35 58 l-29 -33 -1 30 c0 23 13 43 51 83 45 46 81 70 64 42 -3 -5 -1
-10 5 -10 6 0 10 8 8 18 -2 12 3 16 17 14 17 -2 17 -1 5 8 -13 8 -8 17 30 54
25 24 77 78 115 121 101 113 117 127 125 114 8 -13 48 58 54 99 9 52 -11 62
-120 63 -55 1 -130 -2 -169 -6 -38 -4 -108 -8 -155 -9 -62 -2 -98 -8 -132 -23
-27 -12 -48 -20 -48 -18 0 2 10 15 23 28 41 45 72 82 101 121 16 21 72 83 125
137 53 54 107 110 120 124 13 14 28 25 35 25 6 0 22 20 36 45 14 25 31 47 40
50 8 3 24 18 35 34 11 17 28 32 38 35 10 2 21 14 24 25 6 25 30 35 37 15 3 -8
1 -14 -4 -14 -6 0 -10 -7 -10 -16 0 -11 11 -7 44 17 99 71 131 109 39 48 -30
-21 -42 -25 -46 -15 -3 8 15 23 50 41 30 16 57 33 60 39 4 5 1 6 -7 1 -8 -5
-11 -3 -8 6 3 8 29 26 59 42 30 16 56 32 57 38 5 13 -5 11 -41 -8 -31 -16 -32
-15 -17 3 13 15 10 15 -21 -4 -45 -27 -58 -28 -34 -2 23 26 17 25 -15 -2z
m-1290 -996 c0 -5 -7 -17 -15 -28 -14 -18 -14 -17 -4 9 12 27 19 34 19 19z
m-34 -84 c-40 -92 -47 -108 -51 -108 -6 0 16 72 32 108 8 17 19 32 24 32 5 0
2 -15 -5 -32z m740 -334 c-9 -9 -20 -13 -24 -9 -4 3 2 13 12 21 25 18 33 10
12 -12z m-532 -580 c3 -8 2 -12 -4 -9 -6 3 -10 10 -10 16 0 14 7 11 14 -7z"/>
<path d="M1983 2395 c-18 -8 -33 -17 -33 -20 0 -5 70 21 79 30 9 9 -14 4 -46
-10z"/>
<path d="M1448 2375 c-21 -14 -41 -24 -45 -23 -15 5 -55 -30 -51 -46 2 -11 19
-3 68 35 72 57 75 59 69 59 -2 0 -21 -11 -41 -25z"/>
<path d="M1615 2380 c-3 -6 1 -7 9 -4 18 7 21 14 7 14 -6 0 -13 -4 -16 -10z"/>
<path d="M1886 2345 c-11 -8 -15 -15 -9 -15 6 0 16 7 23 15 16 19 11 19 -14 0z"/>
<path d="M1029 2243 c-13 -16 -12 -17 4 -4 9 7 17 15 17 17 0 8 -8 3 -21 -13z"/>
<path d="M962 2180 c-7 -11 -8 -20 -3 -20 9 0 24 30 18 36 -1 2 -8 -6 -15 -16z"/>
<path d="M1670 1469 c0 -5 5 -7 10 -4 6 3 10 8 10 11 0 2 -4 4 -10 4 -5 0 -10
-5 -10 -11z"/>
<path d="M1610 1425 c0 -7 30 -13 34 -7 3 4 -4 9 -15 9 -10 1 -19 0 -19 -2z"/>
<path d="M1590 1400 c-8 -5 -12 -12 -9 -15 4 -3 12 1 19 10 14 17 11 19 -10 5z"/>
<path d="M1513 1323 c-55 -66 -63 -85 -20 -43 19 19 34 37 31 41 -2 4 4 10 15
14 11 3 25 12 31 20 10 12 9 15 -3 15 -8 0 -33 -21 -54 -47z"/>
<path d="M1430 1239 c0 -5 5 -7 10 -4 6 3 10 8 10 11 0 2 -4 4 -10 4 -5 0 -10
-5 -10 -11z"/>
<path d="M1306 1112 c-3 -4 4 -9 15 -9 23 -2 25 3 4 10 -8 4 -16 3 -19 -1z"/>
<path d="M585 1050 c3 -5 8 -10 11 -10 2 0 4 5 4 10 0 6 -5 10 -11 10 -5 0 -7
-4 -4 -10z"/>
<path d="M1219 933 c-13 -17 -13 -17 6 -3 11 8 22 16 24 17 2 2 0 3 -6 3 -6 0
-17 -8 -24 -17z"/>
<path d="M666 693 c-6 -14 -5 -15 5 -6 7 7 10 15 7 18 -3 3 -9 -2 -12 -12z"/>
<path d="M576 533 c-6 -14 -5 -15 5 -6 7 7 10 15 7 18 -3 3 -9 -2 -12 -12z"/>
<path d="M556 493 c-6 -14 -5 -15 5 -6 7 7 10 15 7 18 -3 3 -9 -2 -12 -12z"/>
<path d="M660 359 c-7 -11 -10 -23 -7 -25 2 -2 9 7 15 21 14 30 7 33 -8 4z"/>
<path d="M481 147 c-13 -21 -12 -21 5 -5 10 10 16 20 13 22 -3 3 -11 -5 -18
-17z"/>
</g>
</svg>
