<svg width="48" height="48" viewBox="0 0 48 48" fill="none" xmlns="http://www.w3.org/2000/svg">
<circle cx="24" cy="24" r="23.5" fill="white" stroke="black"/>
<g clipPath="url(#clip0)">
<path d="M31.9958 32V31.9993H31.9998V26.1313C31.9998 23.2607 31.3818 21.0493 28.0258 21.0493C26.4125 21.0493 25.3298 21.9347 24.8878 22.774H24.8412V21.3173H21.6592V31.9993H24.9725V26.71C24.9725 25.3173 25.2365 23.9707 26.9612 23.9707C28.6605 23.9707 28.6858 25.56 28.6858 26.7993V32H31.9958Z" fill="black"/>
<path d="M16.2637 21.318H19.581V32H16.2637V21.318Z" fill="black"/>
<path d="M17.9213 16C16.8607 16 16 16.8607 16 17.9213C16 18.982 16.8607 19.8607 17.9213 19.8607C18.982 19.8607 19.8427 18.982 19.8427 17.9213C19.842 16.8607 18.9813 16 17.9213 16V16Z" fill="black"/>
</g>
<defs>
<clipPath id="clip0">
<rect x="16" y="16" width="16" height="16" fill="white"/>
</clipPath>
</defs>
</svg>
