<svg width="48" height="48" viewBox="0 0 48 48" fill="none" xmlns="http://www.w3.org/2000/svg">
<circle cx="24" cy="24" r="23.5" fill="white" stroke="black"/>
<path d="M24.2344 15C19.5108 15.0008 17 18.162 17 21.6091C17 23.2074 17.8551 25.2016 19.2243 25.8339C19.6149 26.0177 19.5632 25.7934 19.8992 24.4509C19.9258 24.3391 19.9121 24.2424 19.826 24.1381C17.8688 21.7733 19.444 16.9118 23.9551 16.9118C30.4838 16.9118 29.2639 26.3484 25.091 26.3484C24.0154 26.3484 23.2142 25.4664 23.4676 24.3751C23.7749 23.0754 24.3766 21.6781 24.3766 20.7413C24.3766 18.3803 21.0092 18.7306 21.0092 21.8588C21.0092 22.8256 21.3366 23.4781 21.3366 23.4781C21.3366 23.4781 20.2532 28.0502 20.0522 28.9044C19.7118 30.3505 20.0981 32.6912 20.1319 32.893C20.1527 33.004 20.2719 33.0393 20.3386 32.9478C20.4456 32.8015 21.7552 30.85 22.1221 29.4392C22.2557 28.9254 22.8035 26.8404 22.8035 26.8404C23.1646 27.5214 24.2057 28.0914 25.315 28.0914C28.6149 28.0914 31 25.0614 31 21.3016C30.9885 17.697 28.0354 15 24.2344 15V15Z" fill="black"/>
</svg>
