<svg width="48" height="48" viewBox="0 0 48 48" fill="none" xmlns="http://www.w3.org/2000/svg">
<circle cx="24" cy="24" r="23.5" fill="white" stroke="black"/>
<path d="M33 18.6352C32.3678 18.9125 31.6942 19.0963 30.9919 19.1856C31.7144 18.7542 32.2658 18.0763 32.5251 17.2592C31.8514 17.6609 31.1077 17.9446 30.3151 18.1029C29.6754 17.4218 28.7638 17 27.7693 17C25.8398 17 24.2864 18.5661 24.2864 20.4861C24.2864 20.7623 24.3098 21.0279 24.3672 21.2808C21.4697 21.1395 18.9059 19.7508 17.1836 17.6354C16.8829 18.1571 16.7066 18.7542 16.7066 19.397C16.7066 20.604 17.3281 21.6739 18.2546 22.2934C17.6947 22.2827 17.1454 22.1202 16.68 21.8641C16.68 21.8748 16.68 21.8886 16.68 21.9024C16.68 23.596 17.8881 25.0027 19.4722 25.3268C19.1886 25.4044 18.8794 25.4416 18.5585 25.4416C18.3354 25.4416 18.1101 25.4288 17.8987 25.3821C18.3503 26.7622 19.6316 27.7769 21.1553 27.8099C19.9695 28.7374 18.4639 29.2963 16.8341 29.2963C16.5483 29.2963 16.2741 29.2836 16 29.2485C17.5438 30.2441 19.3734 30.8125 21.3465 30.8125C27.7597 30.8125 31.266 25.5 31.266 20.8951C31.266 20.7411 31.2607 20.5923 31.2533 20.4446C31.9449 19.9538 32.5261 19.3407 33 18.6352Z" fill="black"/>
</svg>
