<svg width="153" height="48" viewBox="0 0 153 48" fill="none" xmlns="http://www.w3.org/2000/svg">
<path d="M67.7598 22V7.9082H65.2402V22H67.7598ZM69.9961 22H72.4277V16.0039C72.4277 14.5195 73.3164 13.5137 74.7129 13.5137C76.0996 13.5137 76.7832 14.334 76.7832 15.7988V22H79.2148V15.3105C79.2148 12.918 77.916 11.4531 75.6309 11.4531C74.0391 11.4531 72.9355 12.1953 72.3789 13.4258H72.3301V11.6484H69.9961V22ZM80.9824 14.6172C80.9824 16.1113 81.9492 17.1074 83.8633 17.5566L85.748 17.9961C86.7539 18.25 87.1348 18.5723 87.1348 19.1777C87.1348 19.9492 86.4023 20.4277 85.2207 20.4277C83.9902 20.4277 83.2578 19.9004 83.1113 18.9531H80.7188C80.8848 20.916 82.5352 22.2051 85.1328 22.2051C87.75 22.2051 89.5566 20.8867 89.5566 18.9336C89.5566 17.4004 88.7461 16.5996 86.6758 16.1113L84.8301 15.7012C83.8145 15.457 83.3457 15.0664 83.3457 14.4805C83.3457 13.7285 84.0488 13.2207 85.123 13.2207C86.2559 13.2207 86.9688 13.7676 87.0469 14.6562H89.3125C89.2539 12.7422 87.6035 11.4336 85.1719 11.4336C82.6523 11.4336 80.9824 12.7227 80.9824 14.6172ZM91.7832 9.22656V11.6484H90.2988V13.5234H91.7832V19.2461C91.7832 21.2578 92.6621 22.0488 94.8984 22.0488C95.416 22.0488 95.8945 22.0098 96.1582 21.9512V20.0957C96.002 20.125 95.6895 20.1445 95.4648 20.1445C94.6055 20.1445 94.2148 19.7539 94.2148 18.9043V13.5234H96.168V11.6484H94.2148V9.22656H91.7832ZM101.471 20.3301C100.416 20.3301 99.7129 19.793 99.7129 18.9434C99.7129 18.123 100.387 17.5957 101.559 17.5176L103.951 17.3711V18.1621C103.951 19.4121 102.848 20.3301 101.471 20.3301ZM100.738 22.166C102.066 22.166 103.365 21.4727 103.961 20.3496H104.01V22H106.354V14.8711C106.354 12.791 104.684 11.4336 102.115 11.4336C99.4785 11.4336 97.8281 12.8203 97.7207 14.7539H99.9766C100.133 13.8945 100.865 13.3379 102.018 13.3379C103.219 13.3379 103.951 13.9629 103.951 15.0469V15.7891L101.217 15.9453C98.6973 16.1016 97.2812 17.2051 97.2812 19.041C97.2812 20.9062 98.7363 22.166 100.738 22.166ZM112.887 20.0762C111.354 20.0762 110.377 18.8457 110.377 16.7949C110.377 14.7637 111.354 13.4746 112.887 13.4746C114.439 13.4746 115.445 14.7832 115.445 16.7949C115.445 18.8164 114.439 20.0762 112.887 20.0762ZM112.877 25.9062C115.895 25.9062 117.877 24.3047 117.877 21.834V11.6484H115.494V13.4258H115.455C114.859 12.2344 113.668 11.4727 112.193 11.4727C109.547 11.4727 107.887 13.5137 107.887 16.7852C107.887 20.0078 109.586 22.0098 112.145 22.0098C113.629 22.0098 114.85 21.2676 115.387 20.1543H115.445V21.9023C115.445 23.2207 114.537 24.1094 112.955 24.1094C111.803 24.1094 110.914 23.5723 110.65 22.7812H108.238C108.482 24.5977 110.318 25.9062 112.877 25.9062ZM119.859 22H122.291V15.9746C122.291 14.5195 123.121 13.6309 124.498 13.6309C124.908 13.6309 125.279 13.6895 125.484 13.7676V11.5703C125.309 11.5312 125.035 11.4727 124.723 11.4727C123.502 11.4727 122.594 12.1953 122.242 13.4551H122.193V11.6484H119.859V22ZM130.279 20.3301C129.225 20.3301 128.521 19.793 128.521 18.9434C128.521 18.123 129.195 17.5957 130.367 17.5176L132.76 17.3711V18.1621C132.76 19.4121 131.656 20.3301 130.279 20.3301ZM129.547 22.166C130.875 22.166 132.174 21.4727 132.77 20.3496H132.818V22H135.162V14.8711C135.162 12.791 133.492 11.4336 130.924 11.4336C128.287 11.4336 126.637 12.8203 126.529 14.7539H128.785C128.941 13.8945 129.674 13.3379 130.826 13.3379C132.027 13.3379 132.76 13.9629 132.76 15.0469V15.7891L130.025 15.9453C127.506 16.1016 126.09 17.2051 126.09 19.041C126.09 20.9062 127.545 22.166 129.547 22.166ZM137.125 22H139.557V15.6621C139.557 14.4121 140.377 13.5039 141.549 13.5039C142.682 13.5039 143.385 14.2168 143.385 15.3691V22H145.748V15.6035C145.748 14.3633 146.549 13.5039 147.721 13.5039C148.912 13.5039 149.576 14.2266 149.576 15.4961V22H152.008V14.9004C152.008 12.8301 150.67 11.4531 148.629 11.4531C147.135 11.4531 145.904 12.2539 145.406 13.5332H145.348C144.967 12.2051 143.922 11.4531 142.457 11.4531C141.051 11.4531 139.957 12.2441 139.508 13.4453H139.459V11.6484H137.125V22ZM65.2402 26.9082V41H67.7598V36.3418H70.6113C73.4629 36.3418 75.4648 34.4375 75.4648 31.625C75.4648 28.8125 73.5215 26.9082 70.7188 26.9082H65.2402ZM67.7598 28.9688H70.0547C71.8613 28.9688 72.9062 29.9355 72.9062 31.625C72.9062 33.334 71.8516 34.3105 70.0449 34.3105H67.7598V28.9688ZM80.084 39.3301C79.0293 39.3301 78.3262 38.793 78.3262 37.9434C78.3262 37.123 79 36.5957 80.1719 36.5176L82.5645 36.3711V37.1621C82.5645 38.4121 81.4609 39.3301 80.084 39.3301ZM79.3516 41.166C80.6797 41.166 81.9785 40.4727 82.5742 39.3496H82.623V41H84.9668V33.8711C84.9668 31.791 83.2969 30.4336 80.7285 30.4336C78.0918 30.4336 76.4414 31.8203 76.334 33.7539H78.5898C78.7461 32.8945 79.4785 32.3379 80.6309 32.3379C81.832 32.3379 82.5645 32.9629 82.5645 34.0469V34.7891L79.8301 34.9453C77.3105 35.1016 75.8945 36.2051 75.8945 38.041C75.8945 39.9062 77.3496 41.166 79.3516 41.166ZM86.9297 41H89.3613V34.9746C89.3613 33.5195 90.1914 32.6309 91.5684 32.6309C91.9785 32.6309 92.3496 32.6895 92.5547 32.7676V30.5703C92.3789 30.5312 92.1055 30.4727 91.793 30.4727C90.5723 30.4727 89.6641 31.1953 89.3125 32.4551H89.2637V30.6484H86.9297V41ZM94.4785 28.2266V30.6484H92.9941V32.5234H94.4785V38.2461C94.4785 40.2578 95.3574 41.0488 97.5938 41.0488C98.1113 41.0488 98.5898 41.0098 98.8535 40.9512V39.0957C98.6973 39.125 98.3848 39.1445 98.1602 39.1445C97.3008 39.1445 96.9102 38.7539 96.9102 37.9043V32.5234H98.8633V30.6484H96.9102V28.2266H94.4785ZM100.523 41H102.955V35.0039C102.955 33.5195 103.844 32.5137 105.24 32.5137C106.627 32.5137 107.311 33.334 107.311 34.7988V41H109.742V34.3105C109.742 31.918 108.443 30.4531 106.158 30.4531C104.566 30.4531 103.463 31.1953 102.906 32.4258H102.857V30.6484H100.523V41ZM116.158 32.3184C117.555 32.3184 118.492 33.3438 118.541 34.8086H113.707C113.805 33.3633 114.791 32.3184 116.158 32.3184ZM118.551 37.9043C118.287 38.7637 117.428 39.3301 116.295 39.3301C114.703 39.3301 113.688 38.2168 113.688 36.5566V36.4102H120.924V35.6191C120.924 32.4746 119.088 30.4336 116.148 30.4336C113.16 30.4336 111.266 32.5918 111.266 35.8633C111.266 39.1641 113.141 41.2051 116.246 41.2051C118.697 41.2051 120.514 39.8574 120.826 37.9043H118.551ZM122.496 41H124.928V34.9746C124.928 33.5195 125.758 32.6309 127.135 32.6309C127.545 32.6309 127.916 32.6895 128.121 32.7676V30.5703C127.945 30.5312 127.672 30.4727 127.359 30.4727C126.139 30.4727 125.23 31.1953 124.879 32.4551H124.83V30.6484H122.496V41Z" fill="white"/>
<path d="M28.2188 24C28.2188 26.3298 26.3298 28.2188 24 28.2188C21.6702 28.2188 19.7812 26.3298 19.7812 24C19.7812 21.6702 21.6702 19.7812 24 19.7812C26.3298 19.7812 28.2188 21.6702 28.2188 24Z" fill="white"/>
<path d="M31.125 11.25H16.875C13.7732 11.25 11.25 13.7732 11.25 16.875V31.125C11.25 34.2268 13.7732 36.75 16.875 36.75H31.125C34.2268 36.75 36.75 34.2268 36.75 31.125V16.875C36.75 13.7732 34.2268 11.25 31.125 11.25ZM24 31.0312C20.1229 31.0312 16.9688 27.8771 16.9688 24C16.9688 20.1229 20.1229 16.9688 24 16.9688C27.8771 16.9688 31.0312 20.1229 31.0312 24C31.0312 27.8771 27.8771 31.0312 24 31.0312ZM32.0625 17.3438C31.2858 17.3438 30.6562 16.7142 30.6562 15.9375C30.6562 15.1608 31.2858 14.5312 32.0625 14.5312C32.8392 14.5312 33.4688 15.1608 33.4688 15.9375C33.4688 16.7142 32.8392 17.3438 32.0625 17.3438Z" fill="white"/>
<path d="M35.3438 0H12.6562C5.67773 0 0 5.67773 0 12.6562V35.3438C0 42.3223 5.67773 48 12.6562 48H35.3438C42.3223 48 48 42.3223 48 35.3438V12.6562C48 5.67773 42.3223 0 35.3438 0ZM39.5625 31.125C39.5625 35.7773 35.7773 39.5625 31.125 39.5625H16.875C12.2227 39.5625 8.4375 35.7773 8.4375 31.125V16.875C8.4375 12.2227 12.2227 8.4375 16.875 8.4375H31.125C35.7773 8.4375 39.5625 12.2227 39.5625 16.875V31.125Z" fill="white"/>
</svg>
