<svg width="24" height="24" viewBox="0 0 24 24" fill="none" xmlns="http://www.w3.org/2000/svg">
<path d="M13.9348 23.8438C13.8348 23.86 13.7345 23.8751 13.6338 23.8888C13.7345 23.8751 13.8348 23.86 13.9348 23.8438Z" fill="#FE0089"/>
<path d="M14.1751 23.8027C14.1273 23.8115 14.0795 23.8196 14.0317 23.8278C14.0795 23.8196 14.1273 23.8115 14.1751 23.8027Z" fill="#FE0089"/>
<path d="M13.3656 23.9224C13.2486 23.9355 13.1308 23.9473 13.0127 23.9572C13.1308 23.9473 13.2486 23.9355 13.3656 23.9224Z" fill="#FE0089"/>
<path d="M13.5964 23.894C13.5402 23.9016 13.4836 23.9085 13.4272 23.9151C13.4836 23.9085 13.5402 23.9016 13.5964 23.894Z" fill="#FE0089"/>
<path d="M14.5017 23.7378C14.4596 23.7468 14.4173 23.7557 14.375 23.7643C14.4173 23.7557 14.4596 23.7468 14.5017 23.7378Z" fill="#FE0089"/>
<path d="M15.3122 23.5366C15.2781 23.5463 15.2441 23.5555 15.21 23.565C15.2441 23.5555 15.2781 23.5463 15.3122 23.5366Z" fill="#FE0089"/>
<path d="M15.0669 23.6035C15.03 23.6132 14.9928 23.6231 14.9556 23.6324C14.9928 23.6231 15.03 23.6134 15.0669 23.6035Z" fill="#FE0089"/>
<path d="M14.7467 23.6836C14.7075 23.6927 14.6679 23.7014 14.6284 23.7101C14.6679 23.7014 14.7075 23.6927 14.7467 23.6836Z" fill="#FE0089"/>
<path d="M13.009 23.9575C12.9459 23.9628 12.8827 23.9676 12.8193 23.9718C12.8827 23.9676 12.9459 23.9628 13.009 23.9575Z" fill="#FE0089"/>
<path d="M24 12C24 5.3736 18.6264 0 12 0C5.3736 0 0 5.3736 0 12C0 18.6264 5.3736 24 12 24C12.0705 24 12.1406 23.9985 12.2109 23.9973V14.6558H9.63281V11.6512H12.2109V9.44019C12.2109 6.87598 13.7763 5.48035 16.0637 5.48035C17.159 5.48035 18.1005 5.56201 18.375 5.59845V8.27838H16.7977C15.5533 8.27838 15.3124 8.86981 15.3124 9.73755V11.6512H18.2878L17.9 14.6558H15.3124V23.5364C20.3282 22.0984 24 17.4774 24 12Z" fill="#FE0089"/>
<path d="M12.7926 23.9731C12.6678 23.9812 12.5423 23.9876 12.4165 23.9918C12.5423 23.9876 12.6678 23.9812 12.7926 23.9731Z" fill="#FE0089"/>
<path d="M12.4106 23.9922C12.3443 23.9944 12.2778 23.996 12.2114 23.9971C12.2778 23.996 12.3443 23.9944 12.4106 23.9922Z" fill="#FE0089"/>
</svg>
